<?xml version="1.0" encoding="utf-8"?>
<!-- Generator: Adobe Illustrator 23.1.0, SVG Export Plug-In . SVG Version: 6.00 Build 0)  -->
<svg version="1.1" xmlns="http://www.w3.org/2000/svg" xmlns:xlink="http://www.w3.org/1999/xlink" x="0px" y="0px"
	 viewBox="0 0 633.6 541" style="enable-background:new 0 0 633.6 541;" xml:space="preserve">
<style type="text/css">
	.st0{fill:#FFFFFF;}
	.st1{fill:#433A55;}
	.st2{fill:#12101A;}
	.st3{fill:#171420;}
	.st4{fill:#676698;}
	.st5{fill:#FECB47;}
	.st6{fill:#BA8D64;}
	.st7{fill:#DAB78F;}
	.st8{fill:#A27F5F;}
	.st9{fill:#8A2C24;}
	.st10{fill:#A6433E;}
	.st11{fill:#702020;}
	.st12{fill:#E5251F;}
</style>
<g id="Layer_2">
	<g>
		<path class="st0" d="M283.3,495.4c-60.5,0-117.3-23.5-160.1-66.3c-42.8-42.8-66.3-99.6-66.3-160.1S80.4,151.7,123.2,109
			s99.6-66.3,160.1-66.3S400.6,66.2,443.3,109c42.8,42.8,66.3,99.6,66.3,160.1s-23.5,117.3-66.3,160.1
			C400.6,471.9,343.7,495.4,283.3,495.4z"/>
		<path class="st1" d="M283.3,52.7c119.5,0,216.4,96.9,216.4,216.4c0,119.5-96.9,216.4-216.4,216.4S66.9,388.5,66.9,269.1
			C66.9,149.6,163.8,52.7,283.3,52.7 M283.3,32.7c-31.9,0-62.9,6.3-92,18.6c-28.1,11.9-53.4,28.9-75.1,50.6
			c-21.7,21.7-38.7,47-50.6,75.1c-12.3,29.2-18.6,60.1-18.6,92s6.3,62.9,18.6,92c11.9,28.1,28.9,53.4,50.6,75.1
			c21.7,21.7,47,38.7,75.1,50.6c29.2,12.3,60.1,18.6,92,18.6s62.9-6.3,92-18.6c28.1-11.9,53.4-28.9,75.1-50.6
			c21.7-21.7,38.7-47,50.6-75.1c12.3-29.2,18.6-60.1,18.6-92s-6.3-62.9-18.6-92c-11.9-28.1-28.9-53.4-50.6-75.1
			c-21.7-21.7-47-38.7-75.1-50.6C346.1,39,315.1,32.7,283.3,32.7L283.3,32.7z"/>
	</g>
</g>
<g id="Layer_1">
	<g>
		<path class="st2" d="M262.4,417.5l-9.3,2.6l-11.8-15.8l-9.4-40.5l17.9-23.9l12.7-0.4c0,0,0.6-4.6,3.9-21.2
			c-7.4-15.7-16.1-20-32.9-31.2c-16.8-11.1,0-34.7,0-34.7c-8.7-2-23.9,5.5-23.9,5.5c-14.8-27.4,3.7-48.4,3.7-48.4l-23.1-13.4
			c-60,26.6-119.7,31.7-119.7,31.7l-3.8,48.7L85,357.8l76.4,88.9c0,0,9.3,8.9,61.3,29.1c49.1-11.1,60.3-38.3,60.3-38.3l-11.7-8.1
			L262.4,417.5z"/>
		<polygon class="st2" points="456.9,375.4 450.2,398.9 464.4,386 471.5,367 450.2,372.1 		"/>
		<path class="st2" d="M498.6,272l-14.5-79l-34.8,1.6l-22.6-12.8l-3-17.5l-9.1-15.5l6.3-39.4L400.2,92l-3,17.4l-3.5,3.3
			c0,0,15.9,39,23.3,83.3c7.7,19,7.7,21.7,7.7,21.7l-1,14.5c0,0,6,40.6,7.3,66.6c22,9.5,38.1,16.1,38.1,16.1l26.6-3.4l2.2-28.5
			h-13.8L498.6,272z"/>
	</g>
	<g>
		<polygon class="st1" points="420.9,305.9 413.7,237.3 409.9,215.1 390.2,140.9 377.1,107.4 387.5,99.6 386.2,74 327.4,57.2 
			258.6,52.1 196.2,71.1 137.1,106.5 98.1,158.7 78.4,204.4 168.9,189.8 196.2,181.8 231.8,201.1 219.8,221.8 219.8,240.7 
			239.7,240.7 253,244.2 245.2,260.4 245.2,276.4 258.6,287.6 273.5,304.1 287.2,336.7 288.6,323 301.9,347.7 295,359.6 
			270.2,349.8 260.6,354.5 245.5,363.9 251.7,392.4 271.9,409.2 273.1,421 297.7,427.8 299.9,437.6 258.6,484 304.6,484 
			385.3,458.4 437.5,421.4 441.2,383.9 431.2,355.4 460.6,356.4 488.9,349.1 508.6,328.4 461.8,328.4 		"/>
		<polygon class="st1" points="196.2,328.4 177.6,329.1 168.9,321.6 152.9,321.6 133.9,332.4 83.7,364.2 55.3,388.3 33.1,421.4 
			37.3,426.6 17.5,437.6 22.4,450.8 37.3,447.8 37.3,453.2 68.3,467.3 106,448.9 121.3,437.6 137.1,439.7 152.9,432.2 175,442.2 
			188.2,427.8 201.8,423.8 201.8,400.9 196.2,392.4 206.9,379 214.3,360.3 209.5,342.3 		"/>
		<polygon class="st1" points="608.9,152.7 600.2,134.2 600.2,99.6 583.5,96 581.1,82.4 562.8,71.9 566.9,50.7 562.8,37.9 
			550.6,36.6 542,29.5 542,24.3 536.2,16.5 523.1,8.3 504.2,5 474.4,16.5 472.4,24.3 481.5,46.6 498.1,57.3 502.9,82.6 509.3,118.3 
			498.5,137.6 477.1,136.3 474.4,127.5 454.4,118.3 429.8,115.5 429.8,147.8 438.3,171.2 443.3,180.5 460.2,181.8 498.5,185.7 
			529.4,185.7 542,221.8 591.1,240.7 629.9,217.5 629.9,171.2 		"/>
	</g>
	<g>
		<polygon class="st3" points="321.7,151 239.7,196.1 287.7,181.8 353.6,141.2 372.4,143.4 379.2,164.3 370.5,201.1 384.8,201.1 
			407,204.2 379.2,112.7 369.3,122.9 382.1,103.7 380.4,72.4 318.8,114.1 310.1,54.1 278.9,52.1 306.9,122.2 294.8,130.4 
			236.7,62.9 210.2,66.2 249.5,103.7 287.7,134.2 288.5,134.6 263.8,151.4 210.2,127.5 168.9,87.4 159.5,100.2 188.7,134.2 
			253,158.7 304.6,141.8 359.5,107.4 359.5,118.3 		"/>
		<polygon class="st3" points="399,342.3 417,370.6 390.1,364.2 379.4,371.6 391.4,369.1 410.5,374.5 424.6,385.3 419.8,402.3 
			407,412.1 381.1,412.1 333.3,386 297.7,388.3 327.6,394.5 341.7,412.1 356.7,437.6 323,415.3 327.6,427.8 295,443.2 341.7,458.4 
			323,478.1 377.1,468.9 415.8,431.1 410.8,428.3 435.1,416.5 444.3,379 437.5,355.6 		"/>
		<polygon class="st3" points="401.4,297 424.6,304.4 413.7,230.5 399,243.4 		"/>
		<polygon class="st3" points="265.3,362.6 265.3,371.5 273.1,375.4 281.8,369.9 273.5,351.1 		"/>
		<polygon class="st3" points="111.4,140.9 102.4,153.2 133.9,170.8 184,185.4 210.2,174.4 159.5,168.1 		"/>
		<path class="st3" d="M314.9,253.8h10.8l-9.6,6.8l-16.2,4.7h13.4l1.6,14.9l22.6-5.4l17.1-12.1l24.7-11.9l4.3-6.7l-18.2-15.5
			l-26.4,6.1l-15.9,4.4l4.6-17.4l-27.9-1.8l-7.9-8.6l-4.1-7V193l-4.7,21.3l14.7,9l-13.5,6.7l1.5,6.4l12-6.7l11.3,20l-15.5,13.2
			L314.9,253.8z M348.5,245l14.1-6.6l7.5,5.7l-25,10.2L348.5,245z"/>
		<polygon class="st3" points="261.8,204.4 246.6,204.2 273.3,218.6 		"/>
		<polygon class="st3" points="267.3,281.2 270.2,289.8 273.5,275.2 280.3,268.5 281.8,258.5 270.2,267.4 		"/>
		<polygon class="st3" points="182.5,347.3 180.3,337.5 168.9,326.5 156.3,326.5 161.2,329.3 175.1,342.3 170.7,348.5 		"/>
		<polygon class="st3" points="166.9,410 168.4,398.6 170.8,400.3 184,391.6 194.9,393.1 203.8,382.9 201.8,370.1 195.5,347.7 
			185.3,339.4 193.6,375.4 168.8,395.8 171.7,374.6 156.9,352.7 164,383.6 156.3,393.1 145.9,383.9 152.9,396.2 147,418.4 
			157.7,410.6 		"/>
		<path class="st3" d="M145.9,398.9L130,364.2l8.6,36l-3.2,11.9l-9.3,3.2l-10.2,7.3l1.6-5.9v-26.2l-7.9-12.2l-6.5-2.9l2.9,25v13.1
			l-8.3-4.3l-1.4,16.3l-5.6,8.4l-0.5,0.3l-7.2-4.6l-42.1,21.2l23.4,10.5l17.3-2.9l19.2-7l-20.9-4.7l-9.6-9.2l7.3-3.4l10.6,6.5
			l29.3-4.9l12.8-13.4l0.9-0.5l-0.7,6.9h9l6.4-2.3l26,12.3l0.3,0.7l0.5-0.3l3.1,1.5l-1.7-2.4l14.1-8.8l13-4L201,402l-3.4-7.6
			l-4.8,3.7l3.4,13.9l-21,14.3l-3.4-8h-10.5l3.9-7.8h-3.9l-14.2,7.8l-4.3-3.1L145.9,398.9z M106,432.2l-6.6-2.7l7.8,1.5L106,432.2z
			 M121.3,426.5l-5.9-2.2l0.1-0.3l8,1.3L121.3,426.5z"/>
		<polygon class="st3" points="545.5,55.4 536.2,68.3 553.5,71.1 542,83.5 542,103.7 565.7,103.6 572.9,96 583.5,96 582,87.4 
			565,83.5 562.8,68.3 565,44.7 556.3,38.1 548,48.5 533.7,48.5 		"/>
		<polygon class="st3" points="539.1,20.5 513.2,26.2 501.5,32 498.1,57.3 508.8,46 518.6,44.5 526,32 536.2,29.5 		"/>
		<polygon class="st3" points="623.6,172.6 619.3,180.5 607,170.8 600.2,193 575.6,206.4 572.9,220.8 565.5,206.4 544.2,193 
			553.1,189.8 546.8,181 553.1,185.4 570.6,180.5 575.6,156.6 591.7,151 614.6,153.9 605.3,145 597.3,109.5 592.3,99.6 586,112.7 
			558.6,112.7 553.1,111 568.2,132.3 553.1,166.5 532,170.8 546,180.5 530.4,179.4 550.4,217.8 588.3,238.4 626.8,219.4 		"/>
	</g>
	<g>
		<path class="st4" d="M143.7,193.9l15.8-4.1c0,0-50.5-10.7-63.5-26.2c-3.2,7.5-3.2,7.5-3.2,7.5l16.4,10.6L143.7,193.9z"/>
		<polygon class="st4" points="239.7,164.3 200.1,149.6 165.1,137.6 137.1,111 130.4,123.1 170.7,147.8 		"/>
		<polygon class="st4" points="249.5,127.5 278.9,147.8 226.2,103.7 199.8,71.1 187.9,78 204.2,96.8 		"/>
		<polygon class="st4" points="265.3,55.2 253.1,55.2 304.6,130.2 		"/>
		<polygon class="st4" points="333.3,58.9 324.2,57.3 333.3,107.4 		"/>
		<polygon class="st4" points="246.6,214.3 233.4,214.3 232.2,208.9 249.5,194.6 257.5,182.5 320.5,141.8 265.3,171.2 291.8,152.7 
			253,171.2 245.2,166.6 204.2,182.5 225.7,203.8 215.6,233.2 222.7,244.2 236.7,229.7 241.9,218.6 266.9,218.6 		"/>
		<polygon class="st4" points="261.8,204.4 274.6,209.4 278.2,215.1 283,193.9 274.6,196.1 272.4,203.8 		"/>
		<polygon class="st4" points="310.9,204.5 302.5,206.4 301.8,196.1 310.6,185.4 299.7,193 293.5,189.8 293.5,203.8 303.5,211.4 
			317.9,209.4 345.2,172.8 324.2,196.1 341.7,163.7 		"/>
		<polygon class="st4" points="285.7,236.4 280.3,268.5 287.7,275 309,271.7 290.4,268 287.7,262.8 297.7,247.7 290.7,237.3 
			297.7,229.7 		"/>
		<polygon class="st4" points="314.9,276.5 301.5,280.1 283,284.5 278.8,276.5 274.6,293.2 267.3,281.2 255.9,274.2 258.6,265.4 
			277.5,256.4 262.4,258.5 280.3,240.6 252.1,256.7 251.7,278.2 265.3,291.9 273.3,300 291.8,291.9 319.4,280.1 337.5,270.9 
			377.1,255.3 380.4,245 327.6,267.4 		"/>
		<polygon class="st4" points="392.2,237.3 399,228.7 404.7,215.1 400.4,211.4 399,218.6 390.4,218.6 383.5,214.3 383.5,206.4 
			372.4,212.9 353.7,219.4 372.4,219.4 382.1,226.2 396.8,255.3 		"/>
		<polygon class="st4" points="330.8,250.2 327.6,253.8 314.9,253.8 320.8,255.3 299.9,265.4 328.2,256.9 		"/>
		<polygon class="st4" points="294.1,369.9 270.2,389.9 257.5,380.1 273.5,351.1 260.6,354.5 246.6,368.9 257.4,398.9 271.9,409.2 
			299.9,375.4 324.2,372.9 341.7,380.1 314.9,367 		"/>
		<polygon class="st4" points="294.7,404.2 324.2,404.2 297.7,388.3 282.3,406.8 271.9,409.2 281.8,415.3 		"/>
		<polygon class="st4" points="306.8,437.6 323,415.3 298.2,425.5 		"/>
		<polygon class="st4" points="262.4,479.7 283,487.2 314.9,449.7 295,443.2 		"/>
		<polygon class="st4" points="402,377.7 384.2,375.4 399,388.3 407,404.2 404.7,388.3 415.8,394.2 		"/>
		<polygon class="st4" points="59.6,441.3 43.1,449.6 45.1,456.8 66.6,462.9 86,455.6 59.6,450.8 		"/>
		<polygon class="st4" points="78.4,400.3 89.5,412.1 90,423.8 81.5,427.8 89.4,432.2 92.8,430.7 96.2,425.5 97.7,409.2 78.4,389.9 
					"/>
		<polygon class="st4" points="117.5,390.5 117.6,421.4 126.1,415.3 121.3,393.1 128.2,388.3 114.2,380.1 109.5,378.2 		"/>
		<polygon class="st4" points="171.7,372.3 168.9,390.1 182.5,374.6 185.3,359.1 181.2,365.2 159.2,344.8 168.9,343.7 157.7,326.5 
			139.4,329.3 124.2,341.9 151.6,339.4 124.2,344.7 71.4,374.6 29.3,417 72.5,397.4 72.5,386 78.4,378.2 94.3,374.6 106,397.4 
			103.1,375.4 97.7,369.3 94.3,367 114.2,365.2 121.3,377.6 114.2,380.1 127.8,385.6 125.7,360.3 114.2,354 142.7,351.1 
			145.2,363.2 155.4,371.1 158,353.4 		"/>
		<polygon class="st4" points="184,391.6 173.9,394.9 168.9,402.3 181.2,401.8 171.7,418.4 196.2,394.2 192.8,391.5 		"/>
		<polygon class="st4" points="135.4,367 136,385.6 145.2,397.4 144.2,415.6 147,418.4 152.9,396.3 140.9,371.2 		"/>
		<polygon class="st4" points="492.3,52.1 486.7,34.9 499.5,32 488.9,24.3 492.9,17.6 511.4,18 531.5,13.3 515.1,5 504.2,6.5 
			479.5,13.3 473,21.9 478,46.4 		"/>
		<polygon class="st4" points="542,80 521.2,68.3 513,55.2 518,50.7 536.2,50 545,32 528.6,33.4 511.4,45.6 504.2,48.5 501.5,57.6 
			511.4,74.1 523.2,80 		"/>
		<polygon class="st4" points="523.2,107.4 518,81 511.4,74.1 502.8,60.7 498.1,60.7 501.9,72.4 505.5,96.8 506.5,115.7 495,136.3 
			477.1,136.3 478,140.9 484.4,145 492.9,145 501.5,159.7 502.3,170.8 506.8,159.7 502.3,147.8 516.6,134.7 		"/>
		<polygon class="st4" points="473,128.9 460.2,115.7 432.1,118.3 429.8,134.7 432.8,155.9 438.3,171.2 445,184.5 454.4,185.4 
			454.4,168.1 443.2,156.4 438.3,145 441.2,132.3 459.8,156.5 452.2,134.7 458.7,137.6 		"/>
		<polygon class="st4" points="554.7,137.6 545,109.5 570.8,109.5 575.6,103.7 598.5,96.8 575.6,94.9 565.1,102.4 545.5,102.4 
			536.2,107.4 532,125.6 518,147.8 523.2,171.2 539.1,159.7 536.2,149.6 		"/>
		<polygon class="st4" points="591,164.3 608.9,152.7 588.3,149.6 574.1,156.4 573.3,172.8 556.1,189.8 544.2,193 570.8,189.8 
			585.2,185.4 572.9,182.3 591.7,172.8 		"/>
		<polygon class="st4" points="562.8,68.3 561.1,78.7 581.1,82.4 		"/>
	</g>
	<g>
		<polygon class="st0" points="249.5,233.2 253.5,249.1 266.9,245 287.7,230.5 266.9,227.8 		"/>
		<polygon class="st0" points="342.4,189.8 324.6,210.8 335.4,218.6 370.5,201.1 372.4,189.8 		"/>
	</g>
	<g>
		<polygon class="st5" points="346.5,145.6 341.7,103.7 316.1,122.9 328.8,158.7 351.5,172.8 367.3,158.7 		"/>
		<polygon class="st5" points="382.1,201.1 367.3,207.8 387.1,215.1 395.8,237.3 400.2,214.3 		"/>
	</g>
	<polygon class="st6" points="275.9,298.9 291.8,291.9 327.6,276.4 359.5,259.1 383.7,253.5 393.7,272 384.2,287.6 383.7,297.7 
		334.8,312.4 313.1,326.5 293.5,326.5 291.8,316.6 284.2,328.4 275.9,309.8 	"/>
	<polygon class="st6" points="299.7,356.4 283,349.1 271.9,328.4 272.4,359.2 281.8,369.9 	"/>
	<polygon class="st6" points="324.6,352.7 365.4,341.9 388.8,341.9 399,347.3 399,365.2 386.9,363.7 372.7,369.9 351.5,364.2 	"/>
	<polygon class="st7" points="275.9,298.9 285.8,309.5 285.8,298.9 	"/>
	<polygon class="st7" points="283,297.7 283,308.4 287.6,320.5 284.2,328.4 273.3,303.9 275.9,298.9 280.9,292.5 	"/>
	<polygon class="st7" points="292.3,319.5 285.8,305.9 287.6,294.9 294.7,294.9 291.5,300 288.5,304.1 293.5,313.8 293.5,305.9 
		301.5,324.3 	"/>
	<polygon class="st7" points="305.8,318.2 297.7,300 297.7,292.5 305.8,288.7 313.1,291.9 305.4,293.8 301.5,297.7 307.7,309.5 
		305.4,297.7 317.6,321.6 310.6,328.4 	"/>
	<polygon class="st7" points="321.9,305.9 313.1,291.9 319.4,282 330,278.5 321.9,287 324.6,300 327.6,284.5 332.4,297.7 
		332.4,288.7 337.5,312 328.7,297.7 330.8,315 324.6,318.2 	"/>
	<polygon class="st7" points="346.5,297.7 337.5,280.4 341.7,272 351.5,267.4 354.9,272 345.2,278.5 350,289.8 351.5,282.6 
		355.9,276.5 359.5,305.9 	"/>
	<polygon class="st7" points="367.3,284.5 354.9,272 359.5,262.8 367.3,260.4 374,280.1 367.3,267.4 377.1,294.9 	"/>
	<polygon class="st7" points="375.6,273.2 372.7,262.8 380.4,254.3 379.2,276.4 	"/>
	<polygon class="st7" points="273.3,333.2 275.9,355.9 281.8,369.9 290.1,365.2 283,354.9 283,360.3 	"/>
	<polygon class="st7" points="333.3,350.4 361.8,344.8 348.3,354 350,360.3 	"/>
	<polygon class="st7" points="365.4,339.4 399,347.3 372.4,349.1 372.7,369.9 362.6,356.4 	"/>
	<polygon class="st8" points="297.7,300 305.8,318.2 303.3,324.3 291.8,294.9 	"/>
	<polygon class="st8" points="314.9,293.9 323,308.6 321.9,320.8 317.6,315 310.6,288.7 	"/>
	<polygon class="st8" points="340,285.2 348.3,301.5 345.2,310.7 334.8,284.4 321.4,279 333.3,278.5 	"/>
	<polygon class="st8" points="354.9,272 372.7,289.8 363.8,301.3 359.5,281.2 347.6,269.2 	"/>
	<polygon class="st8" points="372.7,262.8 377.1,278.5 379.2,294.9 367.3,260.4 	"/>
	<polyline class="st8" points="380.8,257.8 379.2,276.4 385.3,280.1 387.1,267.1 	"/>
	<polygon class="st8" points="399,347.3 372.4,363.2 375.1,369.3 386.9,363.7 399,365.2 	"/>
	<polygon class="st8" points="361.8,344.8 353.7,360.3 369.7,371.2 	"/>
	<polygon class="st8" points="299.7,356.4 283,349.1 290.1,365.2 	"/>
	<polygon class="st9" points="316.1,351.1 334.8,312.4 409.9,300 444.3,315.7 471.5,328.4 511.5,326.5 489.5,351.1 447.3,356.4 
		397.2,342.3 380.4,341.9 351.5,341.9 324.6,355.4 	"/>
	<polygon class="st10" points="324.2,326.5 351.5,310.7 409.9,326.5 444.3,326.5 404.7,333.2 356.7,324.3 316.8,344.8 	"/>
	<polygon class="st10" points="365.9,310.7 397.9,321.4 431,321.6 383.9,298.9 	"/>
	<polygon class="st11" points="503.8,329.1 450.2,339.4 415.8,339.4 348.5,333.2 316.8,344.8 321.9,360.3 339.7,347.9 362.6,339.4 
		397.2,342.3 447.3,356.4 489.5,351.1 	"/>
	<g>
		<polygon class="st8" points="438.3,152.8 447.1,166.5 454.4,164.3 459.8,156.5 441.2,132.3 		"/>
		<polygon class="st8" points="497.9,17.7 488.9,20.5 498.1,31 511.4,32 515.5,25 		"/>
		<polygon class="st8" points="531.5,48.5 518.6,48.5 513.2,55.4 536.2,68.3 545.5,61.1 545.5,55.4 		"/>
		<polygon class="st8" points="171.7,416.9 175.1,422.5 195.8,410.6 193.4,400.9 		"/>
	</g>
	<g>
		<polygon class="st0" points="134.2,272.6 125.7,270.6 121.7,272.6 128.1,278.1 145.9,281.5 		"/>
		<polygon class="st0" points="148.4,289.3 145.9,295.9 147,303.8 157.5,307.4 177.6,305.9 151.8,290.3 		"/>
		<polygon class="st0" points="528.6,272.5 528.6,266 515.3,264.3 508.5,267.4 488.9,281.2 511.4,284.4 523,277.7 		"/>
		<polygon class="st0" points="514.2,382.9 528.6,397.4 535.8,400.9 544.2,398.9 546.4,389.9 		"/>
		<polygon class="st0" points="475.7,398.9 481.7,421.9 481.7,435.6 490.4,433.9 493.7,427.4 487.9,411.6 		"/>
	</g>
	<g>
		<polygon class="st12" points="147,196.1 156.3,191.9 119.1,180.5 93.7,161.9 88.2,166.8 114.2,185.4 		"/>
		<polygon class="st12" points="233.4,164.3 241.3,161.9 177.6,143.7 154.4,127.4 137.1,111 130.4,123.1 165.1,147.8 		"/>
		<polygon class="st12" points="266.9,52.7 257.5,55.2 304.6,132.3 		"/>
		<polygon class="st12" points="333.3,58.9 327.6,53 330.8,111 		"/>
		<polygon class="st12" points="314.9,165.1 351.5,134.7 310.9,158.7 239.7,189.8 215.6,178.8 201.8,180.5 223,201.1 		"/>
		<polygon class="st12" points="270.2,222.2 250.5,215.9 230.1,219.4 230.3,203.8 219.8,219.4 219.8,240.7 227.7,224.4 246.6,218.6 
					"/>
		<polygon class="st12" points="285.6,218.6 277.7,207.8 278.5,221.6 288.7,227.8 297.4,221.3 		"/>
		<polygon class="st12" points="303.3,213.3 290.1,206.7 290.1,211.4 304.6,222.2 320.5,215.1 353.7,166.5 319.4,207.5 		"/>
		<polygon class="st12" points="291.8,274.2 309,271.7 290.4,268 286.2,265.4 290.1,248.4 288.7,227.8 280.3,268.5 		"/>
		<polygon class="st12" points="267.3,298.9 287.6,291.9 297.4,281.1 281.8,289.8 268.6,291.9 262.4,280.1 266,262.8 256.1,274.2 
			257,258.9 273.5,247.4 245.2,260.4 245.2,276.4 261.8,287 		"/>
		<polygon class="st12" points="361.6,222.4 379.3,227.8 372.7,222.2 355.6,219.4 330.5,230.5 		"/>
		<polygon class="st12" points="386.9,225.4 384.2,229.7 397.2,257.8 		"/>
		<polygon class="st12" points="313.1,276.5 317.2,278.5 332.4,265.4 		"/>
		<polygon class="st12" points="341.7,262.8 365.5,257.8 383.5,244.2 		"/>
		<polygon class="st12" points="297.7,365.3 274.6,380.1 267.3,376.9 276.4,386 280.4,380.1 301.4,369.3 330.8,374.8 317.6,367 
			337.5,369.9 362.6,376.9 327.4,363.2 		"/>
		<polygon class="st12" points="385.7,364.2 379.8,366.8 372.7,369.9 377.1,376.9 386,369.9 394.9,366.6 414.6,369.9 401.5,363.2 		
			"/>
		<polygon class="st12" points="309,426.5 322.7,421.4 298.2,425.5 299.9,437.6 310.6,437.6 330.8,435.8 309,432.2 		"/>
		<polygon class="st12" points="294.7,452.3 280.3,467.3 320.5,446.7 297.4,444 		"/>
		<polygon class="st12" points="317.2,413.9 298.7,412.2 281.2,419.6 278.6,412.2 298.7,389.9 272.8,406.1 271.5,406.1 261,384.6 
			255.3,364.9 269.3,353.2 269,348.5 255.8,351.7 246.9,366.3 254.6,399.5 270.4,406.1 268.5,406.1 275.7,421.5 288.6,423.9 		"/>
		<polygon class="st12" points="143.7,134.2 130.4,141.8 168.9,152.7 		"/>
		<polygon class="st12" points="210.2,167.9 222.7,163.2 193.6,158.5 185.8,161.9 		"/>
		<polygon class="st12" points="198,96.8 217.4,115.5 232.2,125.6 259.9,143.5 265.3,140.9 227.1,118.3 205.7,94.9 222.7,111 
			278.9,147.8 222.7,99.3 201.8,71.1 187.9,78 205.7,94.9 		"/>
		<polygon class="st12" points="298.2,125.6 257.5,64 251.7,62.2 291.4,125.6 		"/>
		<polygon class="st12" points="327.6,89.9 323,55.9 316.8,67.1 325.3,107.4 		"/>
		<polygon class="st12" points="407,318.2 383.5,312.4 400,306.7 420.9,305.9 397.2,302.1 362.6,313.7 327.6,331.5 322.7,349.5 
			325.3,354 330.8,336 354.9,321.6 380.4,321.6 414.6,329.1 439.3,324.3 411.8,321.5 		"/>
		<polygon class="st12" points="456.4,338.2 503.8,329.1 484.1,327.7 		"/>
		<polygon class="st12" points="280.3,304.7 280.9,296.7 279.3,295.7 274.6,302.9 280.9,319.1 286.8,324.3 		"/>
		<polygon class="st12" points="294.6,320.8 288.8,308.6 287.7,301.3 293.5,296.8 286.8,298.3 285.8,306.7 292.1,318.2 		"/>
		<polygon class="st12" points="305,289.8 296.7,294.6 298.2,301.3 304,315.1 305.8,319.3 313.1,316.2 306.8,315 299.7,301.3 
			299.7,296.8 		"/>
		<polygon class="st12" points="321.2,284.4 331.7,279.4 328.7,276.4 320.5,281.6 313.8,284.5 316.9,284.9 317.6,298.6 323,308.6 
			327.6,311.6 331.7,308.4 325.3,305.9 319.4,298.3 319.4,288.7 		"/>
		<polygon class="st12" points="342.5,272.6 339.5,276.4 340.8,287.9 346.5,294.9 351.5,296.8 343.8,289.8 343.3,282.4 343.1,277.7 
			351.5,269.2 		"/>
		<polygon class="st12" points="365.4,263.5 361.7,264.4 357.3,274.4 365.2,281.9 370.6,289.8 379.3,289.8 364.6,280.1 360.2,274.4 
			362.6,267.4 		"/>
		<polygon class="st12" points="375.4,262.8 374.5,269.2 376.6,277.7 377.7,275 376.6,267 380.4,254.3 		"/>
		<polygon class="st12" points="272.4,329.3 274.6,357.1 279,369.3 285.7,367 280.3,358.3 		"/>
		<polygon class="st12" points="333.3,350.4 341.7,354 359.5,344.8 		"/>
		<polygon class="st12" points="366.6,342.3 365.9,358 369.7,347.3 390.7,342.9 		"/>
		<polygon class="st12" points="151.6,339.4 128.2,339.4 64.6,374.6 40.9,409.8 34,417 32.6,427.8 74.7,376.3 104.9,359.2 
			117.5,360.3 127.8,366.4 124.2,357.2 107.2,355.6 94.3,360.3 110.9,352.2 140.9,345.2 152.9,347.3 156.3,360.3 159.2,344.8 		"/>
		<polygon class="st12" points="93.7,426.6 95,412.1 83.1,399.8 79,390.4 79,400.9 90.1,412.1 90.3,423.8 86,429.5 		"/>
		<polygon class="st12" points="117.6,421.4 122.7,415.3 118.9,389 110.1,379.1 115.9,389.9 		"/>
		<polygon class="st12" points="159.2,324.3 149.3,327.8 125.2,339.4 150,331.9 159.2,337.5 157,329.1 172.8,331.9 		"/>
		<polygon class="st12" points="179.7,374.1 179.7,368.2 177.6,371.1 159.2,351.1 158.4,353.8 171.7,372.9 169.8,384.8 		"/>
		<polygon class="st12" points="184,390.4 178.9,393.5 190.1,396.2 173.2,417 197.5,394.5 194.3,392.7 		"/>
		<polygon class="st12" points="175.1,422.5 171,417 175.1,426.5 196.2,413.1 195.8,410.6 		"/>
		<polygon class="st12" points="147.3,416 149,397.4 145.1,385.6 135.7,368 136.9,382 145.9,398.7 140.9,415.3 		"/>
		<polygon class="st12" points="128.3,432.2 130.4,429.5 132.4,425.5 115.1,438.5 86,443.9 74,438.5 81.5,447.1 109.5,444.6 
			124.2,437.6 125.3,436.2 137.4,440.7 153.1,429.3 139,436 		"/>
		<polygon class="st12" points="46.1,447.1 40.9,449.3 43.1,455 62.2,462.9 89.4,455.6 57.8,455.7 		"/>
		<polygon class="st12" points="488.9,50.7 483.1,38.9 479.5,22.3 498.1,31 484.4,21.2 488.9,16.5 508.5,10.5 526,10.5 509,5.8 
			486.3,11.4 474.4,16.5 471.5,24.3 481,45.2 		"/>
		<polygon class="st12" points="502.3,48.5 502.8,60.7 508.8,74.1 526,82.6 542,80 520.9,72.4 511.4,68.3 506.8,56.3 532,66 
			514.8,56.3 517.6,50.7 526,48.5 533.7,48.5 523.2,44.9 532,36.7 545,32 534.1,30 518,41 		"/>
		<polygon class="st12" points="514.8,118.3 511.4,90.6 499.5,58.6 501.9,77 503.8,99.6 508.5,124.4 492.9,137.2 478,138.2 
			488.9,140.9 498.6,147.8 498.1,142.5 511.4,134.7 		"/>
		<polygon class="st12" points="564.1,70.9 564.1,77.1 576.6,78.9 		"/>
		<polygon class="st12" points="532.4,115.7 530.4,133 518,149.6 520.5,168.1 533.7,172.8 526,163.7 523.6,148.6 539.1,128.9 
			540.6,115.7 548.2,106.5 570.3,103.7 573.3,99.6 588.3,96.8 571.8,94.9 564.1,102.4 544.2,101 		"/>
		<polygon class="st12" points="575.2,158.5 571.1,177 550.7,192.2 544.2,196.1 548.9,206.4 558.6,214.3 554.1,203.5 553.1,196.1 
			567.3,189.8 578.3,174.4 581.1,158.7 602.6,151 586.3,150.6 		"/>
		<polygon class="st12" points="547.5,219.4 530.4,178.8 533.7,177 516.6,182.4 477.1,175.8 451.4,175.8 444.1,171.7 446.1,168.1 
			438.3,148.6 441.2,132.3 452.6,145 441.2,125.9 454.4,122.9 473,128.9 462.7,118.3 446.1,115.7 431.7,121.3 429.8,149.6 
			435.6,163.7 437.4,167.9 438.3,177 446.1,184.6 460.2,181.8 482,179.4 518.6,185.7 527.5,180.5 530.4,178.8 542,221.8 
			585.1,238.4 612.2,224.9 583.5,233.7 		"/>
		<path class="st12" d="M588.3,206.4l-5.4,6.5l14.2,5.7l22.2-22.5l-24.4,15.4C594.8,211.4,589,206.6,588.3,206.4z"/>
	</g>
	<g>
		<path class="st1" d="M377.1,102.4c0,0-28,35.2-51.4,50.4l41.5-27.8l16.5-21.3l-4.4-26.6l-63.2,45.8L238,163.7l23.8-1.8l58.8-31.7
			l53.6-42.7L377.1,102.4z"/>
		<polygon class="st1" points="400.2,249.1 402.8,277.7 406.5,259 410.3,304.1 420.9,305.9 411.8,230.5 404.7,238.4 		"/>
		<polygon class="st1" points="433.2,417.5 443.2,375.4 436,352.6 400,344.7 398.4,349.8 431.2,363.7 434.2,375.4 424.6,406.6 
			393.7,421.4 372.4,413.8 333.3,386 371.2,423.1 362.6,418.4 384.2,444 375.1,451.1 364.3,432.2 340.6,419.5 341.7,423.8 
			353.7,429.5 356.7,432.2 373.2,462.9 396.6,452.7 403.2,440.7 375.4,425.4 398.4,432.2 		"/>
		<polygon class="st1" points="347.6,434.2 343.5,436.5 354.9,446.2 359.5,458.4 326.5,477.5 336.3,475.9 373.2,462.9 357.9,439.4 
					"/>
		<polygon class="st1" points="330.8,437.6 348.3,432 345.2,427.4 326.5,420 323,423.8 336,429.5 		"/>
		<polygon class="st1" points="383.7,124.3 379.2,112.7 349.9,143.5 354.9,145 376.3,129.7 387.1,159.7 393.7,189.8 377.1,185.4 
			376.6,198.1 393.7,196.1 404.7,201.1 393.7,158.7 380.5,126.6 		"/>
	</g>
	<g>
		<polygon points="303.1,249.9 297.7,260.4 309,249.6 297.7,229.7 		"/>
		<polygon points="243.7,205.1 232.2,208.9 245.6,208.9 266.9,215.1 247.8,203.8 		"/>
		<polygon points="328.2,256.9 310.6,262.8 332.7,260.4 335.4,250.2 325.7,240.7 330.8,250.2 		"/>
		<path d="M492.4,355.9l25.6-30.5l-15.8-3.2l-4.9,0.3c2.9-11.9,4.9-24.2,5.8-36.8l11.3-0.7l17-8.2l2.7-6.3l-5.9-7.6H512l-8.2,5.1
			c-0.2-26.5-5-52-13.8-75.5c-4,0.2-8,0.4-12,0.6c9.3,23.6,14.4,49.4,14.4,76.3c0,1.9,0,3.8-0.1,5.7l-20.8,12.7l22.5-1.4
			c-0.7,0.4-1.5,0.7-2.4,0.7c-1,12.4-3.2,24.4-6.3,36.1l-15.9,0.9l-44.8-19.5c-3-29.3-6.5-54.6-10.1-76.5l3.4-5.6l-5.4-17l-2.4-2
			c-10.3-52.8-21.2-80.5-27-92.8c2.8-4.5,4.3-7.4,4.3-7.4V87.8c11.9,6.9,23.1,14.9,33.4,23.9c0.6-4.3,1.6-8.5,2.6-12.7
			c-38.1-31.6-87-50.5-140.4-50.5c-121.9,0-220.8,98.8-220.8,220.8c0,32.4,7,63.2,19.6,90.9l-31.2,23.1l-24.1,38.1l1.5,6.9
			l-14.3,9.3l2.2,12.2c0,0-32.2,38.5-4.9,66.5c31.4,32.3,77.2,33.4,173,0c30.7-10.7,56.1-19.6,78.2-27.3c6.9,0.6,13.8,1,20.8,1
			c90.7,0,168.6-54.7,202.6-132.8L492.4,355.9z M496.6,272.3l-2.6,1.6C494.7,273.1,495.6,272.6,496.6,272.3z M512,268l14-0.3
			l-3.2,7.5l-14.3,5.9H491L512,268z M425.2,310.3l41.3,20.5h32.7l-19.4,18l-34.9,4l-60.8-16h-34L330.7,348v2.5h-10.1l4.1-1.2
			l4.9-16.7l26.7-14.6l31.3,3.2l25.3,6.5l19.4-3h-18.1l-27.8-10.2l-14.3-2.2l27.8-8.4L425.2,310.3z M303,444l0.3,0.4h32.1l15.5-6.7
			l4.2,3.1l3.3,4.5c-20.1,5.4-43.4,12-68.4,19.8C294.4,459.6,298.9,452.7,303,444z M301.8,425.9l1.5-0.2l19.4-4.3l15.5,6.8l3.4,2.6
			l-6.2,3.4h-28.1L301.8,425.9z M359.4,431.8l-26.2-15.5l-14.2-2.5l-23.2,5.8l-14.7,2.2l-9.1-12.6h7.7l22.3-19.8l26.9-1.4l34.9,37
			l22.7,13.1c-6.4,1.6-13.3,3.3-20.7,5.3L359.4,431.8z M383.2,453.1c-3.1,1.7-6.2,3.3-9.4,4.8l-1.3-2.4
			C376.1,454.7,379.6,453.9,383.2,453.1z M428.1,408.1l-33.8,18.7l-25.9-9.7l-23.6-23.8l-14.2-9.6l-30.2,1.4L270.6,402l-12.9-11.9
			l-4.7-24.4l7.6-11.1l11.5-2l0.3,6.6l6.1,11.5l-5.4,4.7l24.5-10.1l33-1.4l32.4,9l33.1,27l-11.5-17.6l-11-9.9l5.5-3.5l10.9-4.6
			l28,6.5l-17.7-9.8l1.4-11l31.6,9.1l4.1,16.3L428.1,408.1z M273.5,336.7L283,352l12,7.6l-8.7,4.3l-3.5,3.1l-5.3-11.1L273.5,336.7z
			 M301.5,356.4l0.4-0.5l1.6-0.5L301.5,356.4z M337.5,351.5l21.9-3.8l5,16.5l1.1,0.7v0.3l-1.1-1L337.5,351.5z M365.9,355.9l0.7-13.6
			l27.7,5.4l0.6,13.5l-12.1,1.3l-5.7,3.2L365.9,355.9z M407.1,225.4l-3.5,7.8l-6.8,13l5.7,34.2l2.7-35.6l1.7-3.2
			c0.8,13.5,5.8,46.6,7.6,58.5l-7-3l-8.2,0.9l-6-43.4l-13.5-24.8l-18.3-7.3l-22.1,10.8l-20.5,7.6h6.7h12.9l24-9.2l14.5,10.2l2.1,5.4
			L361.6,258l-35.9,13.5l-10.8,8.9l-11.5,0.8l-20.4,11l-11.9,1.3l-8.4-10.6l-10.6-6.8v-19.4l30.9-17.6l-3.4,20.5l-11.5,7.6l0.7,12.2
			l4-10.1l5.4-3.8l-0.4,6.3l11.9,6.6l22.7-6.6h-22.2l-5.9-3.8l4.3-36.1l9.4-4.6l2.7-4.3l26.7,3.2l32.9-11.6l24.5-13.5l21.8,7.8
			L407.1,225.4z M340,159.6l22.4-10l14.7,13.2l-9.9-4l-15.6,8.9l-33.2,44l-16.5,5.9l-11.8-10.8l-3-16.2v19.1l10.2,11.6l-8.9,1.3
			l-8.1-4.9l-2.7-10l0.8,13.8l7.3,6.5l-35.1-5.4l-16.2,3.8l-11.9,10c0,0,1.2-20.5,6.3-30.6c13.4-2.8,52.1-12.4,92.7-37.7L305,202.4
			L340,159.6z M365.4,194.6l-8.9,8.4l-23.2,11.3l-5.7-3l13.8-14.6L365.4,194.6z M283,232.1l-25.5,12.1V235l11.3-4.6L283,232.1z
			 M399,196.1l-4.5-3.1h-14l2.7-27.8l-10.8-21.8l-12.9-3.7c0.7-0.6,1.4-1.3,2.1-1.9c5.5-5.2,10.3-11.1,14.3-16.4
			C386.8,149.7,396.1,184.8,399,196.1z M378.8,102.7c0,0-15.1,27.5-53.7,52c-48.8,31-97.4,42.6-97.4,42.6l-23.6-14.8
			c53.5-18.2,116.5-48.8,172.9-100.3c0.1,0.1,0.3,0.1,0.4,0.2L378.8,102.7z M192.3,175.9c-5,1.6-10,3.1-15.2,4.6
			c-2.2-0.7-4.3-1.4-6.4-2.1c10-4.9,22.6-11.4,32.2-16.5c3.7,0.8,7.6,1.5,11.7,2.2C208.1,167.5,198.8,172.4,192.3,175.9z
			 M192.6,80.3c7.1-3.4,14.4-6.4,21.9-9c26,31.4,59.4,55.1,72.5,63.8c-3.8,2.1-7.8,4.3-11.9,6.4C261.7,134,217.9,107.8,192.6,80.3z
			 M219.8,112c-7.5,4.7-17.4,11-24.6,15.4c-4.2-2.8-8-5.5-11.4-8.2c7.4-4.4,17.6-10.6,25.5-15.5C212.7,106.4,216.2,109.2,219.8,112z
			 M325.8,94.7c-5.2,3.9-12.2,9-17.4,12.6l-3.7-9.7c7.9-6,15.8-12.1,19.6-15.3C324.8,86.3,325.3,90.4,325.8,94.7z M309,122.1
			c-1.8,1.2-3.7,2.3-5.6,3.5c-6.7-8.4-21.7-28.7-40.6-64.7c6.4-0.6,12.9-0.9,19.4-1L309,122.1z M290.2,60c3.5,0.1,7,0.3,10.5,0.6
			c-2.8,1.9-5.6,3.8-8.1,5.5L290.2,60z M291.8,118.3c-3.2,2.1-7.8,5.1-11.2,7.3c-2.7-2-5.3-4-7.8-6c4-2.6,9.7-6,13.7-8.6
			C288.3,113.6,290.1,116,291.8,118.3z M267.3,82.4c-6.4,4.1-15.2,9.6-21.5,13.6c-3.4-3.3-6.4-6.5-9.1-9.4
			c6.8-4.4,16.3-10.7,23.4-15.5C262.3,74.6,264.7,78.4,267.3,82.4z M250.9,134.2c2.6,1.7,5.2,3.3,7.8,4.8c-5.1,3-11.8,7-16.7,9.8
			c-3.5-1.1-6.8-2.2-10.1-3.4C237.5,142.1,245.3,137.6,250.9,134.2z M328.4,64.8c5.4,1.2,10.8,2.6,16,4.2c-1,16.7-3.7,27.5-5,31.7
			c-2.5,1.9-5.2,3.9-8,6C331.2,97.7,330.3,80.6,328.4,64.8z M155.2,103.3c31.6,36.6,75.7,48.4,92,51.6c-5.5,2.4-11.1,4.8-17,7.2
			c-20.9-4.4-72.6-17.3-96.9-39.4C140.2,115.8,147.5,109.3,155.2,103.3z M97.1,172.9c2.9-5.6,6-11,9.4-16.3
			c20.4,15.8,47.5,23.4,61.4,26.5c-8.7,2.4-17.7,4.6-26.9,6.6C128.9,186.7,108.9,180.9,97.1,172.9z M107,184.3
			c-1.5-0.6-2.8-1.1-3.9-1.6c-5.1,3-10.6,5.8-14,7.4c1.6-4,3.4-7.9,5.2-11.8C97.3,179.9,101.5,182.1,107,184.3z M119.1,156
			c6.8-3.7,17.2-9.5,25.5-14.2c4.2,2.3,9.2,4.7,14.9,7.1c-8.3,4.8-19.2,10.7-26.3,14.8C127.3,160.9,122.7,158.4,119.1,156z
			 M73.6,269.2c0-21.1,3.1-41.4,8.9-60.6c12.9-1,55.3-5.2,109.2-22.1l32.4,20.2c0,0-16.7,21-5.9,41.5c0,0,15.6-7.8,28,0
			c-9.2,10.2-12.6,32.3,9.2,41.2c8.4,3.4,31.8,47.3,31.8,47.3l2.5-23.6l-4.3,9l-7.5-18.3l1.7-5.4l6.5,7.6l1.1-6.2l4.6-1.3l6.5,1.6
			l-0.5-4.6l6.7-4.3l7.8,2.7l5.4,4.7v-7.4l1.3-6.7l9.7-4.6l6.7,3.2l5.4,4.9v-11.1l8.6-6.5l7.8,4l3.8-9l5.9-2.6l5.4,2.6l2.2,3.8
			l1.6-6.4l2.7-5.1l5.4,7.7v9.5l-7.1-2.4l-2.6,1.1l3.8,15.8l-13.2-7.6l-2.2,7.6l-10.2,6l-8.5-3.6l1.3,9.3l-20,7.3l-4.9-3.5l-0.3,5.4
			l-7.8,4.9l-7.3,1.3l-3.3-6.2v6.2l-8.8,2.2l-3.4-5.5l-1.1,9.9l7.2,19.3l-2.7,8.5l-10.1-5.7L270.6,325l1.2,22.8h-12.7l-13.7,16
			l2.2,27.3l13.3,18h6l6.2,11.9l13.1,7.2l4.4-0.6l4.8,6.3c-2.4,7.4-10.2,23.1-34.3,40.5c-2.2,0.7-4.5,1.5-6.7,2.3
			c-36.7-5-70.3-19.5-98.4-41l6,1.9l12.9,4.6l13.2-9.7l13.8-4.7l1.3-29.7l-4.6-7.6l0,0h2.9l1.6-6.4l8.2-11.2l3.2-13.8l-2.4-15.9
			L200,329.4l-15.4-7.3h-12.1l-0.8-1.1l-20.9-2.9l-41.6,25.3l-7.7,2L91,353.1C79.9,327.5,73.6,299.1,73.6,269.2z M81.5,448.9
			l14.8,1.2l-7.6,4.3l-30.2,4l-13.4-9.1l38-17.8l8.1,6l11.9-3.6h9.3l4.2-8.5l8.7,3.8l5.8-3.7l-5.8,8.1l-12.7,7.2l-29.4,4.8
			l-10.5-8.1L81.5,448.9z M131.7,430.1l2.2-6.3l9.6-6.2l6.6,3.8l9-9l2.1,0.1l-3,7l8.4,9.8l-4.2-9.8l2.1-6.9l4.3,0.2l1.9-12.4l0,0
			l11.2-7.3h13l5.1,12.7l-1.1,18.9l-10.8,3.2l-14,9.8l-21-8.3l-14.3,8.3l-11-3.2L131.7,430.1z M145.9,334l-15.4,4l8.3-4l19.1-7.6
			l18.7,10.8l2.9,10.4H166l15.8,8.7l3.9-11.5l6.5,7.8l7.6,17.8l-1.1,13.4l-6.9,5.4l-6.9-1.1l-13.3,5.9l3.3-21.7l-15.8-17.7l1.7-12.9
			L145.9,334z M177.6,329.1l13.8,1.5l12.1,10.2l5.9,19.6l-4.8,9.6l-9.2-22.2L182,335L177.6,329.1z M73.6,374.3l31.4-17.6l15.3,2.5
			l4,4l1.8,19.4l-7.2,0.4l9.4,5.4l2.2-24.8l-5-10.8l-16,1.5l11.7-6.6l30.6-5.8l4.7,5.8l-2.9,21.9l-9.7-7.5l12.6,14.7l2.8-20.9
			l9.8,18l-2.9,34l-8.6,0.1l-10.1,8l-3.1-0.4l3.1-17.5l-7.5-14.2l-4.3-17v17l6.8,18.8l-3.4,12.2l-12.8,9.3h-8.8l2.7-5.4l-2.5-28.4
			l-7.9-12.2l4.3,12.2l2.2,23l-6.1,16.5l-14-0.7l-6.5,2.9l-5.1-1.2l6.9-3.2V412l-9.7-11.9l-3.1-11.9v7.2L37.6,422l-0.3-2.1
			L73.6,374.3z M22.4,442.2l7.5-5.4l9.1-6.4l39.5-28v1.8l9.7,17.3l-47.1,22.4l-8.5,5.1l-3.2,1.9L22.4,442.2z M201.8,495.8
			c-92.1,35.8-150.9,44.8-181.1,14c-22.5-22.9-6.6-44.5,2.9-54l2.9,2.2l7.3-3.4l0.6,2.7l29.8,11.5l49.6-19.1l10.4-11.4l13,3.8l5-2.9
			c25.9,21.5,56.7,37.1,90.6,45C222.5,487.9,212.2,491.8,201.8,495.8z M367.1,456.9l2.3,3.1c-23.2,10.6-48.8,17-75.6,18.4
			C321,469.4,343.6,462.6,367.1,456.9z M441.2,406.4l3.1-27.4l-3.9-18.1l10.4,3l21.1-4C463.7,376.7,453.4,392.4,441.2,406.4z"/>
		<polygon points="100.9,373.9 103.1,395.5 91.6,392.3 106,402.7 106,374.3 97.3,365.2 81.5,374.3 93.7,370.5 		"/>
		<path d="M196.2,410.3l-2.5-12.9l-21.9,19.5l3.2,7L196.2,410.3z M191.7,404.2l1.1,5.4L176.4,420l-1.3-3.2L191.7,404.2z"/>
		<path d="M614.6,152.4l-10.1-16.2l-2.9-39.4L587.7,94l-3.4-15.3l-18.2-8.8l0.2-15.3l1.8-14.4l-5.8-8.3H552l-10-4V16.2L531.5,3.6
			l-9.7,2.2L507.4,0L488,9.3l-19,4.4l-2.5,12.4l12.9,24.3l14.5,8l7.4,29.8v35.2l-9,10.9l-12.4,1.7l-2.9-12.9l-15.6-9.3l-34.2-6.2
			l-3.6,42.2l6.8,11.1l4.1,18.7l16.4,7.9l23.4-2.5l29.8,5h24.4l11.1,36.3l50.7,18.1l39.9-20.9l3.2-50.7L614.6,152.4z M578.6,82.6
			l1.8,10l-2.9-0.6l-5.2,2.6L566,79.1l0.1-5L578.6,82.6z M546.6,35.6l9.7,2.5l5,5.8v11.7l-2.5,20.7l6.7,21.8l-3.1,1.6H542l-7.7,7.1
			l1.9-9.3L533,84.3l8.9-0.7l11.5-12.5L538,78.7l-16.2-1.8L511,71.1l-6.8-15.5l2.5-5.6l14-6.5l10.8-9.3l10.4-1.8L546.6,35.6z
			 M476.5,21.2l7.6-5.8l27.7-7.6l10.4,4.3l9.3,1.1l4.3,9l-1.8,4.9l-7.9,1.9l-14.7,12.6L499.5,46v7l-0.4-0.8l-17.3-10.1L476.5,21.2z
			 M586.9,236.4l-41.7-15.3l-14.7-41.7l-13.3,5.4l-42.8-7.6l-22.7,2.5l-10.4-5.8l-0.4-10.8l-6.3-8.6v-29l8.8-4.3h16.9l14,11.4v27.7
			l-7.9,9.7l10.6-2.5l5.9-18l-2.6-11.5l14.8,3.5l12.9-7.3l3.2-24.9L504,73.7L500.6,62l1,0.6l7.3,14l11,5.4l8.5,21.7l-4,26.8
			l-12.9,20.9l5,20.1l14,7.9l11.5,2.5l6.8,7.9H542v8.3l13.7,16.2l2.5,9l23,2.2l3.3-7.6l13.6,4l21.2-25.8L598,214.3l-10.2-4.3
			l0.5-1.1l24.1-10.1l2.2-15.8l-7.6-12.2l4,10.4l-2.9,13.4l-27,12.5l-5.6,13.7H565l-4-9.3l-10.4-8.6l-2.2-8.2l12.6-4.8l11.9-11.5
			l7.2-22.3l14.7-6.5h-13.3l10.4-13.3l-9.7,4.7l-18,34.5l8.6-26.6l9.7-19l-4.7-11.5l-24.8-7.3l19.8,10.3l2.9,12.9L565,152.4
			l-6.5,20.5l-13.3,4l-9-7.6l-12.4-5l-3-15.5l15.5-19.4l1.8-15.8l9.3-9.7l18.3-0.4l7.7-7.5l18.9,3.5l2.5,28l6.5,21.9l22.3,23
			l0.4,42.5L586.9,236.4z"/>
		<path d="M511.4,32l7.2-5.8l-23.4-9.7l-10.8,4.7L499.5,32H511.4z M499.5,20.5l13.7,5.8l-6.8,3.2l-15.8-6.8L499.5,20.5z"/>
		<path d="M513.2,55.4l23,12.9l9.3-7.2v-5.8l-11.9-6.8h-15.1L513.2,55.4z M538.8,55.5l3.2,3.9l-5.8,4.6l-17.6-9.3l5.8-4L538.8,55.5z
			"/>
		<path d="M438.3,141.6v11.3l8.8,13.6l8,1.7l5.1-12.8l-20.4-27.8L438.3,141.6z M442.5,137.6l11.9,17.3l-3.6,9.5l-9.5-13.4
			L442.5,137.6z"/>
		<path d="M142.7,295.9l2,11l14,1.5l21-2L147.6,287L142.7,295.9z M175.7,305.3l-16.3,0.6l-10.5-3.1l-1.8-8.2l1.4-2.7L175.7,305.3z"
			/>
		<path d="M152.9,284.5l-20.2-12.8l-9.5-3.2l-1.8,5.5l6.8,5.7L152.9,284.5z M127.1,272.6l6.8,2.3l9.8,5.2l-12.5-2.2l-7-4.9
			L127.1,272.6z"/>
		<path d="M515.2,380.8l-12.1-9.3l-10.2-7.8l6,13.5l38.2,27l8.4-4.8l2.4-10.6l-8.9-2L515.2,380.8z M539.3,398.9l-6.4-0.6l-13-12.2
			l24.4,6.3L539.3,398.9z"/>
		<path d="M482.9,402.3l-8.4-5l6.1,26.4v13.8c0,0,14.4-2.7,13.7-9.8C493.5,420.7,482.9,402.3,482.9,402.3z M487.6,432.2l-3.5-2.9
			l-1.7-9.8l-5.4-18.6l10.1,14.6l4,11.3L487.6,432.2z"/>
	</g>
</g>
</svg>
