<?xml version="1.0" standalone="no"?>
<!DOCTYPE svg PUBLIC "-//W3C//DTD SVG 20010904//EN"
 "http://www.w3.org/TR/2001/REC-SVG-20010904/DTD/svg10.dtd">
<svg version="1.0" xmlns="http://www.w3.org/2000/svg"
 width="260.000000pt" height="260.000000pt" viewBox="0 0 260.000000 260.000000"
 preserveAspectRatio="xMidYMid meet">
<metadata>
Created by potrace 1.11, written by Peter Selinger 2001-2013
</metadata>
<g transform="translate(0.000000,260.000000) scale(0.100000,-0.100000)"
fill="#000000" stroke="none">
<path d="M0 1300 l0 -1300 666 0 c543 0 669 2 678 13 6 8 44 28 84 45 l72 32
58 -29 c32 -16 64 -36 71 -45 10 -11 31 -16 73 -16 l59 0 -7 71 -7 71 63 63
63 64 76 -39 c42 -22 105 -66 140 -99 65 -59 65 -59 54 -95 l-11 -36 86 0 87
0 -78 51 c-48 31 -92 69 -117 102 l-39 53 22 68 c14 43 35 82 58 107 l36 39
51 -25 c52 -26 83 -65 100 -129 7 -24 7 -36 -1 -39 -7 -2 -1 -42 18 -115 l27
-112 109 0 109 0 0 608 c0 522 -2 615 -15 654 l-16 45 -149 54 c-83 29 -150
56 -150 59 0 3 52 34 115 68 l116 63 49 -35 50 -36 0 560 0 560 -517 0 c-575
0 -508 7 -621 -62 l-33 -20 -16 41 -16 41 -699 0 -698 0 0 -1300z m2105 1119
l96 -62 -149 -84 c-93 -54 -155 -95 -167 -114 -11 -16 -24 -29 -28 -29 -12 0
-206 120 -213 131 -3 5 7 24 21 42 25 29 59 47 342 176 1 1 45 -27 98 -60z
m-20 -806 c-74 -70 -95 -83 -292 -179 -117 -57 -217 -104 -223 -104 -13 0
-100 43 -100 49 0 4 58 66 128 139 l127 133 200 18 c110 10 209 19 220 19 14
1 -3 -21 -60 -75z m-1582 -605 c64 -7 117 -15 117 -18 -1 -4 -408 -201 -452
-218 -4 -2 -8 34 -8 81 l0 85 98 40 c53 22 104 41 112 41 8 1 68 -4 133 -11z
m2007 -718 c0 -44 -3 -80 -6 -80 -3 0 -30 7 -59 15 -39 12 -54 22 -59 38 -11
42 -6 99 15 168 l21 70 44 -66 c43 -64 44 -68 44 -145z"/>
</g>
</svg>
